<svg width="61" height="64" xmlns="http://www.w3.org/2000/svg">

 <g>
  <title>background</title>
  <rect fill="none" id="canvas_background" height="66" width="63" y="-1" x="-1"/>
 </g>
 <g>
  <title>Layer 1</title>
  <path id="svg_1" d="m60.64,6.276c-3.86,-8.416 -15.28,-7.04 -19.46,-3.546c-4.176,3.493 -3.33,7.99 -3.33,7.99s-31.197,0.213 -33.417,0.266c-2.22,0.053 -2.908,1.535 -2.115,3.493c0.793,1.957 20.113,25.554 20.146,25.718c0.106,0.53 0.9,16.247 0.793,16.405c-0.106,0.16 -11.95,2.117 -12.637,2.487c-0.687,0.37 -1.322,3.387 -1.057,4.287c0.264,0.9 36.75,0.635 37.172,0.37c0.423,-0.265 0.687,-2.7 -0.264,-3.863c-0.95,-1.164 -15.227,-3.334 -15.227,-3.334s-0.635,-16.088 -0.582,-16.458c0.054,-0.37 14.225,-16.51 14.225,-16.51s3.49,2.486 9.042,0.846c5.55,-1.64 10.573,-9.738 6.713,-18.152l-0.002,0.001zm-31.792,32.956c-0.198,0.516 -0.08,18.535 0.198,18.734c0.278,0.198 13.96,2.62 14.276,3.136c0.317,0.516 0.278,0.833 0.16,0.833s-29.664,-0.16 -29.704,-0.357c-0.04,-0.198 -0.04,-0.595 0.238,-0.635c0.278,-0.04 11.5,-2.58 11.58,-2.858c0.08,-0.278 -0.278,-18.734 -0.317,-19.012c-0.04,-0.278 -14.04,-15.797 -14.436,-17.82c0,0 1.705,-0.517 2.697,-0.557c0.992,-0.04 2.26,-0.12 2.34,0c0.08,0.12 2.222,3.493 2.5,3.493s1.427,-0.636 1.228,-0.874c-0.198,-0.238 -2.022,-2.937 -2.022,-2.937s1.547,0.436 2.935,-0.08c1.39,-0.516 2.5,-0.953 2.896,-0.913c0.397,0.04 3.57,1.627 6.266,1.31c2.697,-0.318 5.67,-1.15 6.464,-0.992c0.793,0.16 1.983,1.23 3.807,1.39c1.824,0.158 3.292,0.078 3.49,0.277c0.197,0.198 -14.397,17.344 -14.595,17.86l-0.001,0.002zm16.562,-20.308c-0.74,0.423 -3.647,1.323 -4.652,0.9c-1.005,-0.423 -3.067,-1.693 -4.07,-1.693s-4.813,1.59 -7.456,1.27c-2.644,-0.317 -4.547,-1.48 -5.87,-1.375c-1.32,0.106 -3.7,1.164 -5.71,1.323c-2.01,0.16 -4.547,-0.318 -4.865,-0.318s-3.014,1.323 -3.12,1.11c-0.106,-0.21 -4.6,-5.767 -4.6,-6.88c0,-0.284 39.92,-0.21 40.714,-0.158c0.794,0.053 2.645,0.582 2.486,1.482c-0.158,0.9 -2.114,3.917 -2.855,4.34l-0.002,-0.001zm13.817,-6.601c-0.357,3.612 -1.31,8.176 -4.997,9.288c-3.688,1.11 -7.257,1.11 -7.376,-0.08c-0.12,-1.19 4.798,-5.675 4.442,-7.7c-0.357,-2.023 -1.428,-2.62 -3.33,-2.777c-1.904,-0.16 -6.782,-0.12 -7.22,-0.397c-0.307,-0.196 -0.237,-2.7 0,-3.93c0.24,-1.23 3.887,-4.96 9.876,-4.365c5.988,0.595 8.962,6.35 8.605,9.962l0,-0.001zm-49.732,2.816c-0.197,-0.08 -1.268,0 -1.347,0.16c-0.08,0.158 1.983,3.293 2.102,3.492c0.12,0.198 1.07,-0.238 1.23,-0.714c0.157,-0.477 -1.776,-2.855 -1.984,-2.938l-0.001,0zm59.448,8.614c-0.435,-0.04 -1.15,0.596 -0.87,1.39c0.277,0.794 1.744,0.794 1.982,-0.04c0.238,-0.833 -0.238,-1.27 -1.11,-1.35l-0.002,0zm4.998,1.39c-0.436,-0.04 -1.15,0.595 -0.873,1.39c0.278,0.793 1.745,0.793 1.983,-0.04c0.24,-0.834 -0.237,-1.27 -1.11,-1.35zm0.992,-5.24c0.238,-0.833 -0.238,-1.27 -1.11,-1.348c-0.436,-0.04 -1.15,0.595 -0.872,1.39c0.276,0.792 1.744,0.792 1.982,-0.04l0,-0.002zm6.305,3.176c-0.436,-0.04 -1.15,0.595 -0.873,1.39c0.278,0.793 1.745,0.793 1.983,-0.04c0.238,-0.834 -0.237,-1.27 -1.11,-1.35zm5.95,-3.254c-0.437,-0.04 -1.15,0.595 -0.873,1.39c0.278,0.793 1.745,0.793 1.983,-0.04c0.237,-0.834 -0.24,-1.27 -1.11,-1.35zm-9.36,9.446c-0.436,-0.04 -1.15,0.595 -0.872,1.39c0.278,0.793 1.745,0.793 1.983,-0.04c0.237,-0.834 -0.24,-1.27 -1.11,-1.35l-0.001,0zm-33.991,-22.267c0.08,0.238 2.14,3.016 2.26,3.056c0.12,0.04 0.952,-0.437 1.03,-0.556c0.08,-0.12 -2.378,-3.215 -2.378,-3.215c-0.237,0.078 -0.99,0.475 -0.912,0.714l0,0.001zm39.584,19.964c-0.04,0.2 -0.08,4.13 0.04,4.367c0.12,0.238 0.714,0.238 0.99,0.16c0.28,-0.08 0.318,-4.13 0.318,-4.486c0,-0.356 -1.303,-0.265 -1.348,-0.04l0,-0.001zm0.633,5.678c-0.278,0.12 -4.005,2.064 -4.045,2.262c-0.04,0.198 0.437,0.754 0.596,0.794c0.16,0.04 3.886,-1.507 4.085,-1.785c0.2,-0.278 -0.42,-1.36 -0.634,-1.27l-0.002,-0.001zm-1.943,6.43c-0.238,0.238 -0.516,1.072 -0.516,1.072s3.014,1.707 3.252,1.707c0.237,0 0.554,-1.35 0.554,-1.35s-3.015,-1.705 -3.29,-1.43l0,0.001zm-2.538,3.612c-0.04,0.16 0.516,2.62 0.516,2.62s1.468,-0.198 1.508,-0.318c0.04,-0.12 -0.704,-2.216 -0.912,-2.382c-0.2,-0.16 -1.07,-0.08 -1.11,0.08l-0.002,0z"/>
 </g>
</svg>