<svg width="410.28" height="507.58" xmlns="http://www.w3.org/2000/svg">

 <title/>
 <g>
  <title>background</title>
  <rect fill="none" id="canvas_background" height="402" width="582" y="-1" x="-1"/>
 </g>
 <g>
  <title>Layer 1</title>
  <path fill="#000000" id="svg_1" d="m0,302.44c0,113.11 92,205.14 205.14,205.14a205,205 0 0 0 205.14,-205.14a8.51,8.51 0 0 0 -8.5,-8.5l-393.28,0a8.51,8.51 0 0 0 -8.5,8.5zm393.09,8.5a188.49,188.49 0 0 1 -5.57,37.8l-364.74,0a186.85,186.85 0 0 1 -5.59,-37.8l375.9,0zm-368.4,44.8l360.91,0a188.14,188.14 0 0 1 -180.46,134.84c-85.24,0 -157.41,-56.98 -180.45,-134.84z" class="cls-1"/>
  <path fill="#000000" id="svg_2" d="m264.28,452.88a137.9,137.9 0 0 0 49.87,-36.62a3.5,3.5 0 0 1 5.31,4.57a145.2,145.2 0 0 1 -52.46,38.49a3.55,3.55 0 0 1 -1.38,0.28a3.5,3.5 0 0 1 -1.38,-6.72l0.04,0z" class="cls-1"/>
  <path fill="#000000" id="svg_3" d="m378.42,110.16c16.45,-17.37 12.24,-43 12.05,-44a8.5,8.5 0 0 0 -13.91,-5l-37.32,32.01l11.31,-56.08a8.5,8.5 0 0 0 -11.42,-9.6c-1.12,0.43 -27.63,11 -35,36.29c-3.38,11.54 -2.22,23.94 3.42,37a48.22,48.22 0 0 0 -21.77,1.59c-12.27,4 -21.67,13.24 -27.93,27.43a114.6,114.6 0 0 0 -4.85,13.65c0,0.1 -0.06,0.21 -0.09,0.31c-9.35,31.94 -14.73,85.5 -13.71,113.66a24.5,24.5 0 0 0 14.68,21.67a24.76,24.76 0 0 0 10,2.13a24.51,24.51 0 0 0 15.89,-5.87c12.91,-10.94 30.63,-29.33 46.26,-48c12.11,-14.48 22.06,-28 28.77,-39.1l0,0a112.55,112.55 0 0 0 6.7,-12.6c6.27,-14.18 6.76,-27.34 1.46,-39.11a45.66,45.66 0 0 0 -9.12,-13.16c10.09,-2.2 18.31,-6.6 24.58,-13.22zm-56.62,13l0,0l0.26,0.13l0.3,0.15l0.27,0.13l0.08,0l0.19,0.07l0.34,0.13l0.18,0.07c0.34,0.11 18,6.06 24.09,19.75c3.24,7.27 2.74,15.51 -1.54,25.19a84.88,84.88 0 0 1 -4.15,8l-14.15,-7.55a3.5,3.5 0 1 0 -3.3,6.17l13.81,7.37a332.63,332.63 0 0 1 -24.34,32.62l-27.21,-12.53a3.5,3.5 0 1 0 -2.93,6.36l25.46,11.78c-14,16.37 -29.18,31.94 -40.36,41.41a7.66,7.66 0 0 1 -12.62,-5.57c-0.93,-25.59 3.67,-73.13 11.81,-103.84l27.15,12.19a3.45,3.45 0 0 0 1.43,0.31a3.5,3.5 0 0 0 1.44,-6.69l-28.08,-12.61a90.89,90.89 0 0 1 3.45,-9.46c4.28,-9.68 10,-15.6 17.58,-18.1c14.3,-4.77 30.67,4.36 30.84,4.47l0,0.05zm8.08,-69.51l-7.7,38.14c-3.18,-8.42 -3.79,-16.14 -1.79,-23.09a34.48,34.48 0 0 1 9.49,-15.1l0,0.05zm42.54,33.48a27.91,27.91 0 0 1 -6.42,11.42q-6,6.33 -16.73,8.41l23.15,-19.83z" class="cls-1"/>
  <path fill="#000000" id="svg_4" d="m153.92,151.61c-12.56,-31 -41.06,-51.41 -70.11,-51.41l-0.81,0c-0.09,-0.24 -0.19,-0.49 -0.29,-0.73c-5.71,-13.97 -22.95,-20.21 -38.5,-13.91a32.19,32.19 0 0 0 -16.66,14.92a25.87,25.87 0 0 0 -1.27,21.85a24.85,24.85 0 0 0 5,7.79c-12.49,20.51 -14.28,48.17 -4.28,72.93c12.57,31 40.68,51.37 69.88,51.42c4.54,7.47 13.07,11.8 22.29,11.8a30.25,30.25 0 0 0 11.4,-2.25c14.28,-5.78 21.65,-21 16.43,-33.84c-0.15,-0.35 -0.3,-0.7 -0.46,-1.05c15.32,-20.87 18.32,-50.53 7.38,-77.52zm-24.25,71.32a8.48,8.48 0 0 0 0.23,11.66a6.08,6.08 0 0 1 1.32,2c1.67,4.11 -1.56,9.47 -7,11.7s-11.55,0.63 -13.22,-3.49a7.07,7.07 0 0 1 -0.27,-0.95a8.49,8.49 0 0 0 -9.15,-6.59c-24,2.43 -48.13,-14.26 -58.79,-40.57c-9,-22.16 -6.28,-46.92 6.89,-63.07a8.5,8.5 0 0 0 -3,-13.08a8.81,8.81 0 0 1 -4.6,-4.58a9.32,9.32 0 0 1 0.63,-7.67a15.17,15.17 0 0 1 7.94,-7c6.74,-2.74 14.22,-0.66 16.33,4.53a8.08,8.08 0 0 1 0.55,3.22a8.49,8.49 0 0 0 9.76,8.62a44.08,44.08 0 0 1 6.68,-0.5c22.22,0 44.29,16.24 54.25,40.8c9.4,23.36 6.06,48.85 -8.55,64.97z" class="cls-1"/>
  <path fill="#173156" id="svg_5" d="m119,211.83a3.41,3.41 0 0 1 -1.54,0.36a3.5,3.5 0 0 1 -1.53,-6.64a19.93,19.93 0 0 0 9.07,-26.65a3.5,3.5 0 0 1 6.29,-3.07a26.91,26.91 0 0 1 -12.37,36l0.08,0z" class="cls-1"/>
  <path fill="#000000" id="svg_6" d="m197.13,264.73a16.15,16.15 0 1 0 16.14,-16.14a16.17,16.17 0 0 0 -16.14,16.14zm7,0a9.15,9.15 0 1 1 9.14,9.15a9.15,9.15 0 0 1 -9.14,-9.15z" class="cls-1"/>
  <path fill="#000000" id="svg_7" d="m131.88,59a18.86,18.86 0 1 0 -18.88,18.86a18.88,18.88 0 0 0 18.88,-18.86zm-7,0a11.86,11.86 0 1 1 -11.88,-11.85a11.87,11.87 0 0 1 11.88,11.85z" class="cls-1"/>
  <path fill="#000000" id="svg_8" d="m404.31,215.06a20.34,20.34 0 1 0 -20.31,20.33a20.36,20.36 0 0 0 20.31,-20.33zm-7,0a13.34,13.34 0 1 1 -13.31,-13.34a13.35,13.35 0 0 1 13.31,13.34z" class="cls-1"/>
  <path fill="#000000" id="svg_9" d="m25.46,257.78a11.33,11.33 0 1 0 11.33,-11.32a11.34,11.34 0 0 0 -11.33,11.32zm7,0a4.33,4.33 0 1 1 4.33,4.33a4.33,4.33 0 0 1 -4.33,-4.33z" class="cls-1"/>
  <path fill="#000000" id="svg_10" d="m283.38,32.8a11.33,11.33 0 1 0 -11.32,11.33a11.34,11.34 0 0 0 11.32,-11.33zm-7,0a4.33,4.33 0 1 1 -4.32,-4.33a4.33,4.33 0 0 1 4.32,4.33z" class="cls-1"/>
  <path fill="#000000" id="svg_11" d="m215.62,156.21c15.38,-20.34 32.17,-51.59 24.38,-84.89c-6.46,-27.84 -28.87,-51.53 -66.58,-70.42a8.51,8.51 0 0 0 -11.5,4c-11,23.4 -20.7,46.53 -18,72.18c3.06,29.38 22.28,56.38 58.76,82.55a8.38,8.38 0 0 0 2.27,1.15c-1.22,18.58 -4.89,34.48 -10.75,46.38a3.5,3.5 0 0 0 1.59,4.69a3.59,3.59 0 0 0 1.55,0.36a3.51,3.51 0 0 0 3.14,-1.95c6.39,-13 10.34,-30.23 11.55,-50.27a8.38,8.38 0 0 0 2.32,-2.06c0.42,-0.54 0.86,-1.11 1.3,-1.7l-0.03,-0.02zm-3.71,-24.9c-1.6,-24.31 -6.76,-48.31 -14.42,-65.76a3.5,3.5 0 1 0 -6.41,2.81c8.26,18.84 13.49,45.66 14.22,72c-27.59,-21.36 -42.17,-42.68 -44.5,-65.06c-1.93,-18.58 4.49,-36.74 12.77,-55.11c28.27,15.67 45.05,34.14 49.9,55c4.7,20.14 -2.25,40.05 -11.59,56.1l0.03,0.02z" class="cls-1"/>
 </g>
</svg>