<svg width="24" height="24" xmlns="http://www.w3.org/2000/svg">

 <g>
  <title>background</title>
  <rect fill="none" id="canvas_background" height="402" width="582" y="-1" x="-1"/>
 </g>
 <g>
  <title>Layer 1</title>
  <path fill="#ffc400" id="favorite" d="m12.9,2.6l2.3,5c0.1,0.3 0.4,0.5 0.7,0.6l5.2,0.8c0.9,0 1.2,1 0.6,1.6l-3.8,3.9c-0.2,0.2 -0.3,0.6 -0.3,0.9l0.9,5.4c0.1,0.8 -0.7,1.5 -1.4,1.1l-4.7,-2.6c-0.3,-0.2 -0.6,-0.2 -0.9,0l-4.7,2.6c-0.7,0.4 -1.6,-0.2 -1.4,-1.1l0.9,-5.4c0.1,-0.3 -0.1,-0.7 -0.3,-0.9l-3.8,-3.9c-0.5,-0.6 -0.2,-1.6 0.6,-1.7l5.2,-0.8c0.3,0 0.6,-0.3 0.7,-0.6l2.3,-5c0.5,-0.7 1.5,-0.7 1.9,0.1z"/>
 </g>
</svg>